<svg id="Layer_1" data-name="Layer 1" xmlns="http://www.w3.org/2000/svg" viewBox="0 0 122.88 115.96"><defs><style>.cls-1{fill-rule:evenodd;}</style></defs><title>businessman</title><path class="cls-1" d="M45.41,69.61c.35-2.91-8.3-14.06-9.88-19.4-3.39-5.38-4.59-13.94-.9-19.63,1.47-2.26.84-4.22.84-7.35,0-31,54.27-31,54.27,0,0,3.92-.89,4.84,1.22,7.93,3.55,5.15,1.73,14.29-1.27,19.07-1.93,5.61-11,16.22-10.37,19.4.57,15.9-34,15.37-33.91,0Zm19.78,27.5H67.1A3.13,3.13,0,0,0,70.22,94V88.93a3.12,3.12,0,0,0-3.12-3.12H55.79a3.13,3.13,0,0,0-3.12,3.12V94a3.14,3.14,0,0,0,3.12,3.12h1.94L54,116H68.76L65.19,97.11ZM0,116C1.47,97-2.26,97.77,13.65,91.82A122.36,122.36,0,0,0,36,80.51L49.6,116ZM87.54,78.9a91.08,91.08,0,0,0,20.61,10.29C123,94.13,123,94.82,122.86,116H73.45L87.54,78.9Z"/></svg>