<?xml version="1.0" encoding="utf-8"?><svg version="1.1" id="Layer_1" xmlns="http://www.w3.org/2000/svg" xmlns:xlink="http://www.w3.org/1999/xlink" x="0px" y="0px" viewBox="0 0 122.88 114.07" style="enable-background:new 0 0 122.88 114.07" xml:space="preserve"><style type="text/css">.st0{fill-rule:evenodd;clip-rule:evenodd;}</style><g><path class="st0" d="M0,114.07h32.06V74.53c0-0.26,0.03-0.52,0.09-0.77C5.45,77.57,6.81,89.89,0,114.07L0,114.07z M40.66,34.12 v4.98l1.7,2.33c0.26,0.35,0.4,0.76,0.42,1.17l0.01,0c0.61,8.65,2.92,14.03,6.38,17.41c3.37,3.29,7.97,4.8,13.21,5.64 c5.66-0.93,10.1-3.3,13.26-7.02c3.29-3.87,5.29-9.26,5.91-16.06c0.03-0.35,0.14-0.67,0.31-0.95l0,0l1.51-2.5l0.03-5.18l4.46,0.02 l-0.03,5.65c0.03,0.44-0.07,0.9-0.32,1.31l-1.57,2.6c-0.77,7.49-3.1,13.53-6.91,18.01c-3.94,4.63-9.38,7.53-16.26,8.6 c-0.24,0.04-0.48,0.05-0.73,0.01c-6.21-0.95-11.74-2.77-15.99-6.92c-4.14-4.04-6.91-10.17-7.68-19.67l-1.63-2.24 c-0.35-0.4-0.56-0.92-0.56-1.49v-5.69H40.66L40.66,34.12z M61.16,0c2.14,0,4.22,0.22,6.23,0.64l-0.38,17.93l6.53-15.95 c9.2,4.09,16,12.59,17.71,22.82h3.53v4.19h-3.12c0,0.02,0,0.04,0,0.06H30.65c0-0.02,0-0.04,0-0.06H28.1v-4.19h2.96 c1.77-10.56,8.96-19.28,18.62-23.2l5.71,16.06l0.6-17.86C57.67,0.15,59.4,0,61.16,0L61.16,0z M58.03,99.73h6.81v6.81h-6.81V99.73 L58.03,99.73z M58.03,82.89h6.81v6.81h-6.81V82.89L58.03,82.89z M38.35,114.07h23.09h23.09V74.53c0-0.49,0.11-0.96,0.32-1.37 L61.44,73.3l-23.41-0.14c0.2,0.41,0.32,0.88,0.32,1.37V114.07L38.35,114.07z M90.82,114.07h32.06c-6.81-24.18-5.45-36.5-32.16-40.3 c0.06,0.25,0.09,0.5,0.09,0.77V114.07L90.82,114.07z"/></g></svg>