<?xml version="1.0" encoding="utf-8"?>
<!-- Generator: Adobe Illustrator 25.2.1, SVG Export Plug-In . SVG Version: 6.00 Build 0)  -->
<svg version="1.1" id="Layer_1" xmlns="http://www.w3.org/2000/svg" xmlns:xlink="http://www.w3.org/1999/xlink" x="0px" y="0px"
	 viewBox="0 0 131.9 132.1" style="enable-background:new 0 0 131.9 132.1;" xml:space="preserve">
<path d="M42.3,1.2c2.2,0,4,1.8,4,4v12h8v-12c0-2.2,1.8-4,4-4s4,1.8,4,4v12h8v-12c0-2.2,1.8-4,4-4s4,1.8,4,4v12h8v-12
	c0-2.2,1.8-4,4-4s4,1.8,4,4v12c11,0,20,9,20,20h12c2.2,0,4,1.8,4,4s-1.8,4-4,4h-12v8h12c2.2,0,4,1.8,4,4s-1.8,4-4,4h-12v8h12
	c2.2,0,4,1.8,4,4c0,2.2-1.8,4-4,4h-12v8h12c2.2,0,4,1.8,4,4c0,2.2-1.8,4-4,4h-12c0,11-9,20-20,20v12c0,2.2-1.8,4-4,4s-4-1.8-4-4v-12
	h-8v12c0,2.2-1.8,4-4,4s-4-1.8-4-4v-12h-8v12c0,2.2-1.8,4-4,4s-4-1.8-4-4v-12h-8v12c0,2.2-1.8,4-4,4s-4-1.8-4-4v-12
	c-11,0-20-9-20-20h-12c-2.2,0-4-1.8-4-4c0-2.2,1.8-4,4-4h12v-8h-12c-2.2,0-4-1.8-4-4c0-2.2,1.8-4,4-4h12v-8h-12c-2.2,0-4-1.8-4-4
	s1.8-4,4-4h12v-8h-12c-2.2,0-4-1.8-4-4s1.8-4,4-4h12c0-11,9-20,20-20v-12C38.3,3,40.1,1.2,42.3,1.2z M38.3,25.2c-6.6,0-12,5.4-12,12
	v56c0,6.6,5.4,12,12,12h56c6.6,0,12-5.4,12-12v-56c0-6.6-5.4-12-12-12H38.3z M42.3,53.2c0-6.6,5.4-12,12-12h24c6.6,0,12,5.4,12,12
	v24c0,6.6-5.4,12-12,12h-24c-6.6,0-12-5.4-12-12V53.2z M54.3,49.2c-2.2,0-4,1.8-4,4v24c0,2.2,1.8,4,4,4h24c2.2,0,4-1.8,4-4v-24
	c0-2.2-1.8-4-4-4H54.3z"/>
</svg>
