<?xml version="1.0" encoding="utf-8"?><svg version="1.1" id="Layer_1" xmlns="http://www.w3.org/2000/svg" xmlns:xlink="http://www.w3.org/1999/xlink" x="0px" y="0px" viewBox="0 0 122.88 107.41" style="enable-background:new 0 0 122.88 107.41" xml:space="preserve"><style type="text/css">.st0{fill-rule:evenodd;clip-rule:evenodd;}</style><g><path class="st0" d="M60.83,17.19C68.84,8.84,74.45,1.62,86.79,0.21c23.17-2.66,44.48,21.06,32.78,44.41 c-2.19,4.37-5.86,9.27-10.24,14.32v-0.61H80.86h-1.51l-1.06,1.1l-4.79,4.94L63.62,45.4l-3.28-6.3l-3.14,6.37l-8.95,18.16 l-8.87-12.87l-3.12-4.52l-2.89,4.68l-4.16,6.72H10.95C4.74,49.11,0.38,39.9,0.02,29.95C-0.63,11.75,13.73,0.09,30.25,0.31 C45.01,0.5,51.22,7.84,60.83,17.19L60.83,17.19z M103.31,65.53c-0.45,0.47-0.9,0.94-1.35,1.41c-8.23,8.52-17.34,16.87-23.72,23.2 l-17.4,17.26L46.46,93.56c-8.76-8.44-20.32-17.98-29.71-28.72H31.2h1.99l1.06-1.72l2.32-3.76l9.23,13.39l3.47,5.04l2.7-5.49 l8.51-17.28l8.89,17.09l2.3,4.42l3.47-3.58l7.2-7.42H103.31L103.31,65.53z"/></g></svg>