<?xml version="1.0" encoding="utf-8"?><svg version="1.1" id="Layer_1" xmlns="http://www.w3.org/2000/svg" xmlns:xlink="http://www.w3.org/1999/xlink" x="0px" y="0px" viewBox="0 0 116.91 122.88" style="enable-background:new 0 0 116.91 122.88" xml:space="preserve"><style type="text/css">.st0{fill-rule:evenodd;clip-rule:evenodd;}</style><g><path class="st0" d="M53.12,75.8c7.99,0.01,21.72-0.04,23.79-0.04c5.17-0.3,5.31-9.02,0-9.02H57.34V46.99c0-3.96-8.63-4.69-8.63,0 c0,9.45,0,15.44,0,24.64C48.71,76.84,47.7,75.79,53.12,75.8L53.12,75.8z M116.91,43.45V10.98l-8.12,8.12 c-0.38,0.38-0.89,0.57-1.39,0.57c-0.5,0-1-0.19-1.39-0.57l-1.6-1.56c-0.53-0.52-1.09-1.05-1.67-1.57 c-0.57-0.52-1.15-1.02-1.73-1.52c-0.59-0.5-1.19-0.98-1.78-1.45c-0.59-0.46-1.21-0.93-1.85-1.39c-0.64-0.46-1.28-0.91-1.91-1.33 c-0.64-0.43-1.28-0.84-1.92-1.23c-0.66-0.4-1.31-0.79-1.96-1.16c-0.66-0.37-1.33-0.74-2.02-1.09l-0.01-0.01 c-0.67-0.37-1.42-0.72-2.13-1.05L85.99,5.1c-0.96-0.42-1.94-0.82-2.92-1.19c-0.98-0.37-1.97-0.71-2.96-1.03 c-0.99-0.31-1.99-0.61-3.02-0.87c-1.01-0.26-2.04-0.51-3.07-0.72c-1.05-0.22-2.09-0.41-3.12-0.57c-1.02-0.16-2.06-0.29-3.12-0.4 c-1.05-0.11-2.1-0.19-3.15-0.25C63.59,0.03,62.55,0,61.52,0l-0.14,0c-2.02,0-4.03,0.1-6.01,0.3c-2,0.2-3.99,0.49-5.95,0.88 c-1.98,0.39-3.93,0.88-5.83,1.46c-1.93,0.58-3.82,1.26-5.66,2.02c-1.76,0.73-3.47,1.54-5.15,2.42c-1.68,0.89-3.32,1.86-4.92,2.91 c-1.61,1.05-3.16,2.17-4.64,3.35c-1.5,1.19-2.93,2.45-4.3,3.76l-0.9,0.9c-1.43,1.44-2.8,2.94-4.08,4.5 c-1.27,1.55-2.47,3.17-3.59,4.84c-1.12,1.67-2.15,3.4-3.1,5.17c-0.94,1.76-1.8,3.57-2.57,5.44c-0.76,1.84-1.44,3.73-2.03,5.66 c-0.57,1.89-1.06,3.84-1.46,5.83c-0.39,1.96-0.69,3.95-0.88,5.95C0.1,57.35,0,59.35,0,61.36l0,0.16c0,2.02,0.1,4.02,0.3,6 c0.2,2,0.49,3.98,0.88,5.95c0.39,1.98,0.88,3.92,1.46,5.83c0.59,1.94,1.26,3.83,2.02,5.65c0.78,1.87,1.64,3.69,2.58,5.45 c0.95,1.77,1.99,3.5,3.1,5.17c1.12,1.68,2.32,3.3,3.6,4.85c1.28,1.55,2.63,3.05,4.06,4.48l0.29,0.28c1.4,1.39,2.87,2.71,4.4,3.95 c1.53,1.24,3.12,2.42,4.76,3.51c1.66,1.1,3.36,2.12,5.11,3.06c1.74,0.93,3.53,1.78,5.36,2.54c1.83,0.76,3.72,1.43,5.66,2.02 c1.91,0.58,3.86,1.07,5.84,1.46c1.95,0.39,3.93,0.68,5.92,0.88c1.97,0.2,3.95,0.3,5.95,0.3l0.15-0.01c2.55,0,5.07-0.16,7.55-0.46 c2.51-0.31,4.98-0.76,7.38-1.36c2.45-0.61,4.84-1.37,7.15-2.25c2.34-0.9,4.62-1.94,6.81-3.12c2.22-1.18,4.36-2.51,6.42-3.95 c2.07-1.45,4.04-3.03,5.9-4.71c1.86-1.69,3.63-3.49,5.28-5.4c1.64-1.9,3.17-3.9,4.58-6l0.77-1.17l0.71-1.15l0.86-1.46H94.95 c-0.36,0.4-0.72,0.78-1.07,1.14c-0.42,0.43-0.85,0.86-1.29,1.27c-0.51,0.48-1.04,0.96-1.59,1.44c-0.54,0.47-1.1,0.93-1.68,1.38 c-0.65,0.51-1.31,1-1.96,1.46c-0.66,0.47-1.34,0.91-2.01,1.33c-0.68,0.42-1.38,0.84-2.08,1.22c-0.7,0.39-1.42,0.76-2.15,1.11 l-0.79,0.37l-0.84,0.37l-0.83,0.35c-0.74,0.29-1.46,0.57-2.21,0.84c-0.08,0.05-0.17,0.09-0.26,0.13c-0.11,0.05-0.22,0.08-0.33,0.1 l-1.5,0.44c-0.53,0.16-1.06,0.3-1.6,0.44c-0.55,0.14-1.07,0.27-1.57,0.38l-0.1,0.02c-0.49,0.11-1.01,0.21-1.56,0.31 c-0.54,0.1-1.06,0.18-1.54,0.25l-1.03,0.14l-1.08,0.12l-0.85,0.07l-0.77,0.05l-0.25,0.06c-0.11,0.02-0.23,0.03-0.34,0.03h-4.44 c-0.11,0-0.23-0.01-0.34-0.03l-0.25-0.06c-1.2-0.07-2.39-0.19-3.57-0.36c-1.21-0.17-2.41-0.39-3.6-0.66 c-1.28-0.29-2.52-0.62-3.73-1.01c-1.22-0.39-2.43-0.83-3.62-1.32c-1.36-0.56-2.7-1.2-4-1.9c-1.31-0.7-2.59-1.47-3.81-2.29 c-1.23-0.83-2.43-1.71-3.58-2.65c-1.16-0.95-2.26-1.95-3.29-2.97l-0.09-0.1c-1.03-1.04-2.01-2.13-2.93-3.25 c-0.92-1.12-1.79-2.3-2.61-3.53c-0.82-1.23-1.59-2.5-2.29-3.81c-0.7-1.3-1.33-2.64-1.89-3.99c-0.49-1.19-0.94-2.4-1.32-3.62 c-0.38-1.2-0.72-2.45-1-3.73c-0.27-1.19-0.49-2.39-0.66-3.59c-0.16-1.17-0.29-2.36-0.36-3.56l-0.06-0.25 c-0.02-0.12-0.03-0.24-0.03-0.35l0.01-4.47c0-0.11,0.01-0.22,0.03-0.33l0.06-0.24c0.07-1.21,0.2-2.4,0.36-3.57 c0.17-1.21,0.39-2.41,0.66-3.6c0.29-1.28,0.62-2.52,1-3.72c0.39-1.22,0.83-2.43,1.32-3.62c0.56-1.36,1.2-2.7,1.9-4 c0.7-1.31,1.47-2.59,2.29-3.81c0.83-1.23,1.71-2.43,2.65-3.58c0.95-1.16,1.95-2.26,2.98-3.29l0.08-0.07 c1.05-1.04,2.14-2.03,3.27-2.95c1.12-0.92,2.3-1.79,3.53-2.61c1.23-0.82,2.5-1.59,3.81-2.29c1.3-0.7,2.63-1.33,4-1.89 c1.36-0.56,2.75-1.06,4.17-1.49c1.4-0.43,2.83-0.79,4.29-1.07c1.4-0.28,2.84-0.49,4.32-0.64c1.42-0.14,2.88-0.22,4.36-0.22 c0.51-0.05,1.16-0.03,1.76-0.02l0.66,0.01c0.11,0,0.23,0.01,0.34,0.03l0.25,0.06c0.81,0.05,1.61,0.12,2.4,0.21 c0.82,0.09,1.63,0.21,2.44,0.35c0.88,0.15,1.75,0.33,2.62,0.53c0.87,0.2,1.73,0.43,2.59,0.69c1.05,0.31,2.08,0.66,3.09,1.04 c1.02,0.39,2.03,0.81,3.01,1.26c0.99,0.46,1.96,0.95,2.9,1.47c0.96,0.53,1.89,1.1,2.8,1.69l2.34,1.52 c0.12,0.08,0.23,0.17,0.33,0.27c0.08,0.08,0.15,0.16,0.21,0.25c2.09,1.66,3.61,3.09,5.55,4.96c0.39,0.38,0.59,0.88,0.6,1.38 c0.01,0.51-0.17,1.02-0.55,1.41L84.45,43.45H116.91L116.91,43.45z"/></g></svg>