<?xml version="1.0" encoding="utf-8"?><svg version="1.1" id="Layer_1" xmlns="http://www.w3.org/2000/svg" xmlns:xlink="http://www.w3.org/1999/xlink" x="0px" y="0px" viewBox="0 0 122.88 122.88" style="enable-background:new 0 0 122.88 122.88" xml:space="preserve"><style type="text/css">.st0{fill-rule:evenodd;clip-rule:evenodd;}</style><g><path class="st0" d="M4.52,48.12h43.6V4.52c0-2.48,2.04-4.52,4.52-4.52h17.59c2.49,0,4.52,2.04,4.52,4.52v43.6h43.6 c2.49,0,4.52,2.04,4.52,4.52v17.59c0,2.48-2.04,4.52-4.52,4.52h-43.6v43.6c0,2.49-2.04,4.52-4.52,4.52H52.65 c-2.48,0-4.52-2.04-4.52-4.52v-43.6H4.52C2.04,74.76,0,72.72,0,70.23V52.65C0,50.16,2.04,48.12,4.52,48.12L4.52,48.12z"/></g></svg>